<svg width="231" height="231" viewBox="0 0 231 231" fill="none" xmlns="http://www.w3.org/2000/svg">
<path d="M228.064 134.314C217.697 108.03 199.767 90.3578 172.36 83.6865C152.704 78.9021 134.284 83.7374 116.734 92.9151C105.458 98.8115 94.4433 105.387 82.7129 110.199C55.3802 121.411 28.6885 120.088 3.47863 103.55C2.65282 103.009 1.78225 102.534 0.915608 102.058C0.818257 102.005 0.609578 102.155 0.00194265 102.369C0.0019422 107.454 -0.000895939 112.709 0.0024906 117.964C0.0120113 132.622 -0.0264122 147.28 0.0454555 161.937C0.208264 195.135 26.2374 225.237 59.1908 230.053C65.4012 230.961 71.55 231 77.8818 231C81.3818 231 89.2139 231 92.3818 231C94.3818 231 95.8818 231 98.3818 231C99.8818 231 100.882 231 102.882 231C105.382 231 108.882 231 111.382 231C113.882 231 115.882 231 122.382 231C131.882 231 124.882 231 136.382 231C142.382 231 154.046 230.932 159.002 230.907C194.385 230.734 224.929 204.023 228.779 169.031C230.02 157.756 228.424 146.169 228.064 134.314ZM113.898 153.249C132.864 144.983 161.416 122.043 182.382 125C192.557 126.435 200.185 149 194.079 158.946C153.003 125 183.878 196.914 164.53 196.968C132.887 197.056 101.241 197.22 69.6033 196.793C63.3382 196.709 56.8408 194.786 50.9331 192.476C44.7132 190.045 39.6602 185.518 35.8343 178.769C54.4188 180.319 70.9798 176.417 86.5413 168.073C95.4587 163.291 104.343 158.448 113.898 153.249Z" fill="#264AFF"/>
<path d="M49.3385 3.07799C21.8909 13.1841 5.94259 32.4851 0.531457 60.7499C-0.7201 67.2872 0.279838 72.1664 5.89162 76.8699C27.3147 94.8255 50.2983 98.6914 75.5737 86.1797C89.943 79.0667 103.754 70.597 118.605 64.734C149.828 52.4072 180.615 52.8661 208.911 73.1971C216.368 78.5552 222.586 85.6391 228.86 91.456C234.625 61.0933 223.78 30.7097 200.185 13.4477C188.191 4.67285 174.714 0.102227 159.817 0.075676C129.663 0.0219323 99.5073 -0.110578 69.3564 0.190811C62.806 0.256301 56.2725 2.01042 49.3385 3.07799Z" fill="#264AFF"/>
</svg>
